<svg width="12" height="21" viewBox="0 0 12 21" fill="none" xmlns="http://www.w3.org/2000/svg">
<path d="M0.654462 7.44315L5.65144 5.22225C5.87143 5.12797 6.12288 5.12797 6.3324 5.22225L11.3294 7.44315C11.7694 7.64219 12.1779 7.10792 11.8741 6.73078L6.63617 0.329992C6.27999 -0.109997 5.69335 -0.109997 5.33717 0.329992L0.0992068 6.73078C-0.194119 7.10792 0.214473 7.64219 0.654462 7.44315Z" fill="#15161E"/>
<path d="M0.654407 13.5186L5.66187 15.7395C5.88186 15.8337 6.13331 15.8337 6.34283 15.7395L11.3503 13.5186C11.7903 13.3195 12.1989 13.8538 11.8951 14.2309L6.65709 20.6317C6.30091 21.0717 5.71427 21.0717 5.35809 20.6317L0.120124 14.2309C-0.194153 13.8538 0.203942 13.3195 0.654407 13.5186Z" fill="#15161E"/>
<path d="M5.76666 7.85158L1.44009 10.0096C1.05248 10.1982 1.05248 10.7534 1.44009 10.942L5.76666 13.1C5.91332 13.1734 6.09136 13.1734 6.23802 13.1L10.5646 10.942C10.9522 10.7534 10.9522 10.1982 10.5646 10.0096L6.23802 7.85158C6.08088 7.77825 5.91332 7.77825 5.76666 7.85158Z" fill="#15161E"/>
</svg>
